<svg xmlns="http://www.w3.org/2000/svg" width="16" height="16" viewBox="0 0 16 16"><defs><clipPath id="a"><path transform="translate(2433.42 2637.478)" fill="none" stroke="#4d5670" d="M0 0h16v16H0z"/></clipPath></defs><g clip-path="url(#a)" fill="none" stroke="#4d5670" stroke-linecap="round" stroke-width="1.5" transform="translate(-2433.42 -2637.478)"><path d="M2440.95 2650.515l-2.616 1.375a1.011 1.011 0 0 1-1.467-1.066l.5-2.912a1.009 1.009 0 0 0-.291-.9l-2.115-2.063a1.011 1.011 0 0 1 .56-1.725l2.924-.425a1.015 1.015 0 0 0 .762-.553l1.307-2.65a1.011 1.011 0 0 1 1.814 0l1.308 2.65a1.011 1.011 0 0 0 .762.553l2.923.425a1.011 1.011 0 0 1 .561 1.725l-2.116 2.063a1.012 1.012 0 0 0-.291.9l.5 2.912a1.012 1.012 0 0 1-1.468 1.066l-2.615-1.375a1.012 1.012 0 0 0-.942 0z" stroke-linejoin="round"/><path d="M2435.848 2640.515l12.59 8.935"/></g></svg>