<svg xmlns="http://www.w3.org/2000/svg" xmlns:xlink="http://www.w3.org/1999/xlink" width="64" height="64" viewBox="0 0 64 64">
  <defs>
    <linearGradient id="linear-gradient" x1="-0.063" y1="0.523" x2="1.063" y2="0.523" gradientUnits="objectBoundingBox">
      <stop offset="0" stop-color="#b2c7d5"/>
      <stop offset="1" stop-color="#b2c7d5"/>
    </linearGradient>
    <linearGradient id="linear-gradient-2" x1="0.5" y1="1" x2="0.5" gradientUnits="objectBoundingBox">
      <stop offset="0" stop-color="#35558a"/>
      <stop offset="1" stop-color="#6a8cc3"/>
    </linearGradient>
  </defs>
  <g id="icon_create_Payments" transform="translate(-158 -72)">
    <rect id="矩形_143" data-name="矩形 143" width="64" height="64" rx="12" transform="translate(158 72)" fill="#35558a" opacity="0.1"/>
    <g id="组_419" data-name="组 419" transform="translate(265.729 -43.112)">
      <rect id="矩形_559" data-name="矩形 559" width="64" height="64" transform="translate(-107.729 115.112)" fill="#bff" opacity="0"/>
      <g id="组_418" data-name="组 418">
        <path id="矩形_560" data-name="矩形 560" d="M0,0H22.27a4.011,4.011,0,0,1,4.011,4.011V17.417a0,0,0,0,1,0,0H0a0,0,0,0,1,0,0V0A0,0,0,0,1,0,0Z" transform="translate(-88.633 136.85) rotate(-13.336)" fill="url(#linear-gradient)"/>
        <rect id="矩形_561" data-name="矩形 561" width="37.505" height="27.321" rx="5.852" transform="translate(-94.486 136.741)" fill="url(#linear-gradient-2)"/>
        <path id="矩形_562" data-name="矩形 562" d="M3.12,0H14.53a0,0,0,0,1,0,0V6.24a0,0,0,0,1,0,0H3.12A3.12,3.12,0,0,1,0,3.12v0A3.12,3.12,0,0,1,3.12,0Z" transform="translate(-71.501 148.803)" fill="#35558a"/>
        <path id="矩形_563" data-name="矩形 563" d="M3.12,0H14.53a0,0,0,0,1,0,0V6.24a0,0,0,0,1,0,0H3.12A3.12,3.12,0,0,1,0,3.12v0A3.12,3.12,0,0,1,3.12,0Z" transform="translate(-71.501 147.281)" fill="#f5dcb2"/>
      </g>
    </g>
  </g>
</svg>
