<svg xmlns="http://www.w3.org/2000/svg" width="25" height="25" viewBox="0 0 25 25"><g fill="none" stroke-linecap="round" stroke-linejoin="round" stroke-width="1.5"><path d="M6.365 9.599a1.522 1.522 0 0 1 .194-2.143l.061-.049a1.526 1.526 0 0 1 .911-.3h9.936a1.521 1.521 0 0 1 1.52 1.521 1.5 1.5 0 0 1-.3.912 4.23 4.23 0 0 0-.845 2.535v6.49a2 2 0 0 1-2 2.006H9.169a2 2 0 0 1-2.006-2v-6.4a3.955 3.955 0 0 0-.798-2.572z" stroke="#35558a"/><path d="M14.279 16.118v-4.566M10.72 16.118v-4.566" stroke="#28c5d6"/><path d="M16.06 7.099l-.484-1.453a1.78 1.78 0 0 0-1.69-1.217h-2.774a1.784 1.784 0 0 0-1.691 1.217l-.48 1.453" stroke="#35558a"/></g></svg>