<svg xmlns="http://www.w3.org/2000/svg" xmlns:xlink="http://www.w3.org/1999/xlink" width="40.019" height="40.019" viewBox="0 0 40.019 40.019">
  <defs>
    <radialGradient id="radial-gradient" cx="0.5" cy="0.5" r="0.531" gradientUnits="objectBoundingBox">
      <stop offset="0" stop-color="#ff777c"/>
      <stop offset="1" stop-color="#b70f15"/>
    </radialGradient>
  </defs>
  <g id="logo_opera" transform="translate(-714.455 -2290.306)">
    <path  d="M0,0H40.019V40.019H0Z" transform="translate(714.455 2290.306)" fill="#6d4ace" opacity="0"/>
    <path d="M42.05.2H43.7c.23.027.463.051.693.088.869.135,1.742.26,2.611.413a8.911,8.911,0,0,1,1.326.321c.548.186,1.086.413,1.617.646A12.509,12.509,0,0,1,51.68,2.5a25.088,25.088,0,0,1,2.2,1.627,13.687,13.687,0,0,1,3.281,4.018,24.57,24.57,0,0,1,1.089,2.479c.108.257.183.531.271.8a9.575,9.575,0,0,1,.382,1.231c.145.819.237,1.644.352,2.469.014.112.03.223.034.335.037,1.065.149,2.138.085,3.2a24.637,24.637,0,0,1-.47,3.091,10.4,10.4,0,0,1-.419,1.353c-.189.572-.348,1.16-.589,1.711a17.254,17.254,0,0,1-.9,1.715,15.528,15.528,0,0,1-1.1,1.762,14.841,14.841,0,0,1-2.462,2.645c-.582.463-1.157.947-1.772,1.36a12.155,12.155,0,0,1-1.59.852c-.558.264-1.136.49-1.711.717a7.182,7.182,0,0,1-.95.294c-.646.156-1.292.311-1.948.43-.6.108-1.2.173-1.81.254h-1.41c-.6-.081-1.187-.156-1.779-.247s-1.157-.2-1.735-.308a.388.388,0,0,1-.057-.02c-.369-.132-.741-.264-1.106-.4a13.606,13.606,0,0,1-1.515-.582,15.166,15.166,0,0,1-1.925-1.153,22.432,22.432,0,0,1-2.3-1.847,14.492,14.492,0,0,1-2.347-2.932,14.22,14.22,0,0,1-1.211-2.273c-.095-.244-.21-.477-.308-.717-.142-.352-.287-.7-.4-1.069-.125-.392-.22-.795-.318-1.2-.135-.545-.3-1.086-.389-1.64-.129-.842-.2-1.691-.3-2.537V16.753c.024-.294.034-.589.074-.879.129-.9.264-1.8.416-2.7q.132-.776.315-1.542a7.077,7.077,0,0,1,.281-.859c.125-.338.267-.67.409-1,.189-.443.359-.9.585-1.316A12.868,12.868,0,0,1,29.526,7a17.448,17.448,0,0,1,1.613-2.033,16.751,16.751,0,0,1,2.205-1.854,16.988,16.988,0,0,1,2.3-1.366,11.865,11.865,0,0,1,1.61-.589c.311-.108.629-.2.954-.277.656-.152,1.312-.311,1.975-.43C40.8.342,41.428.281,42.05.2Zm7.5,16.655c-.044-.8-.095-1.661-.139-2.527-.034-.663-.02-1.329-.1-1.989-.108-.934-.274-1.86-.433-2.79a9.347,9.347,0,0,0-.3-1.329,13.405,13.405,0,0,0-.653-1.674A11.815,11.815,0,0,0,46.975,4.9a4.166,4.166,0,0,0-2.1-1.624A8.78,8.78,0,0,0,43.4,2.886a4.483,4.483,0,0,0-2.368.389,3.676,3.676,0,0,0-1.458.988,15.5,15.5,0,0,0-1.13,1.444,6.159,6.159,0,0,0-.555,1.167,9.706,9.706,0,0,0-.318,1.038c-.166.629-.321,1.265-.48,1.9-.01.041-.01.081-.017.122-.142.869-.311,1.732-.413,2.6-.071.605-.061,1.224-.074,1.837-.041,1.661-.183,3.328-.071,4.979a19.582,19.582,0,0,0,.325,3.947,8.478,8.478,0,0,1,.237,1.431,8.224,8.224,0,0,0,.511,2.111c.156.419.325.839.474,1.262a6.2,6.2,0,0,0,1.268,2.033,4.57,4.57,0,0,0,2.9,1.542,4.7,4.7,0,0,0,2.114-.156,5.711,5.711,0,0,0,1.414-.646,6.231,6.231,0,0,0,2.094-2.6,12.676,12.676,0,0,0,.737-2c.216-.764.369-1.552.514-2.337a13.373,13.373,0,0,0,.213-1.722c.088-1.766.152-3.528.233-5.354Z" transform="translate(691.498 2292.796)" fill="url(#radial-gradient)"/>
  </g>
</svg>
